<svg xmlns="http://www.w3.org/2000/svg" version="1.1" viewBox="348.62 344.45 541.79 532.96">
<path d="M0 0 C3.52055658 0.02148467 7.03907365 0.00001401 10.55957031 -0.02539062 C49.83185981 -0.07376999 87.21621154 9.60811715 122.52050781 26.52148438 C123.24173828 26.86308594 123.96296875 27.2046875 124.70605469 27.55664062 C135.56171568 32.76812712 145.64419717 39.03350626 155.64550781 45.70898438 C156.22082245 46.09262146 156.79613708 46.47625854 157.3888855 46.871521 C167.35299563 53.54112253 176.67092069 60.47742376 185.33300781 68.77148438 C189.97180848 73.25589402 189.97180848 73.25589402 194.96972656 77.31835938 C195.48148438 77.71539062 195.99324219 78.11242187 196.52050781 78.52148438 C196.52050781 79.18148437 196.52050781 79.84148437 196.52050781 80.52148438 C197.51050781 80.85148437 198.50050781 81.18148437 199.52050781 81.52148438 C201.02832031 83.01757812 201.02832031 83.01757812 202.64550781 84.95898438 C205.24343015 88.03319248 207.90221532 91.01397919 210.64550781 93.95898438 C221.06275779 105.50194061 230.72902165 118.27170914 238.11083984 131.97387695 C239.61055512 134.68422141 241.20181291 137.32774665 242.79785156 139.98242188 C246.55266337 146.40936969 249.66310059 153.02011374 252.64550781 159.83398438 C253.16612793 161.01444336 253.68674805 162.19490234 254.22314453 163.41113281 C257.81622583 171.65855262 261.03375899 179.87387134 263.52050781 188.52148438 C263.83890625 189.56820312 264.15730469 190.61492187 264.48535156 191.69335938 C277.06057799 238.1979703 279.48948681 292.25138869 265.02050781 338.64648438 C264.1728651 341.38289618 263.35493541 344.11657513 262.58691406 346.87695312 C256.02053521 369.31809405 245.56869351 394.47683282 230.52050781 412.52148438 C229.73689826 413.77187369 228.98067321 415.04046883 228.27050781 416.33398438 C227.69300781 417.38585937 227.11550781 418.43773437 226.52050781 419.52148438 C225.86050781 419.52148438 225.20050781 419.52148438 224.52050781 419.52148438 C224.52050781 420.51148438 224.52050781 421.50148438 224.52050781 422.52148438 C223.86050781 422.52148438 223.20050781 422.52148438 222.52050781 422.52148438 C222.11638672 423.38773438 222.11638672 423.38773438 221.70410156 424.27148438 C217.65527778 431.96825829 211.06425359 438.31779083 205.16894531 444.62695312 C203.34860134 446.6164441 201.61951934 448.59369124 199.91894531 450.67773438 C197.95676632 453.00422674 196.10177609 454.90620484 193.77050781 456.83398438 C190.78683428 459.3676066 188.04273993 462.00989659 185.33300781 464.83398438 C177.66681343 472.57934771 168.81617347 478.93377619 159.55175781 484.63085938 C157.28854181 486.04245286 155.07343106 487.48284806 152.86425781 488.97460938 C135.22159475 500.81821329 116.47574915 510.24678923 96.52050781 517.52148438 C95.79653809 517.79154297 95.07256836 518.06160156 94.32666016 518.33984375 C84.99468833 521.79218318 75.50935302 524.40372476 65.83300781 526.70898438 C64.8557373 526.94697754 63.8784668 527.1849707 62.87158203 527.43017578 C44.37533736 531.65526641 25.82085612 533.02187207 6.88696289 532.91259766 C3.58795757 532.89650851 0.29017979 532.91256437 -3.00878906 532.93164062 C-23.13628833 532.95378607 -42.84797236 531.02664697 -62.35449219 525.95898438 C-63.0172818 525.78985535 -63.68007141 525.62072632 -64.36294556 525.44647217 C-98.43921785 516.70073853 -129.99193861 501.02477124 -158.47949219 480.52148438 C-159.39601563 479.89113281 -160.31253906 479.26078125 -161.25683594 478.61132812 C-167.86662178 473.99301291 -173.69945706 468.79317221 -179.53417969 463.25585938 C-182.07188145 460.85980639 -184.73202799 458.6758 -187.47949219 456.52148438 C-189.79199219 454.39648438 -189.79199219 454.39648438 -191.47949219 452.52148438 C-191.47949219 451.86148437 -191.47949219 451.20148438 -191.47949219 450.52148438 C-192.13949219 450.52148438 -192.79949219 450.52148438 -193.47949219 450.52148438 C-194.78417969 449.26367188 -194.78417969 449.26367188 -196.35449219 447.39648438 C-196.97710937 446.66171875 -197.59972656 445.92695312 -198.24121094 445.16992188 C-198.97984375 444.2959375 -199.71847656 443.42195313 -200.47949219 442.52148438 C-201.38011728 441.49133345 -202.28257128 440.46277956 -203.18652344 439.43554688 C-220.22279871 419.99759449 -233.59920152 398.98566027 -244.47949219 375.52148438 C-244.80369141 374.82474609 -245.12789063 374.12800781 -245.46191406 373.41015625 C-258.64982126 344.64355167 -266.50429611 313.00678733 -266.71777344 281.30664062 C-266.72584518 280.13806015 -266.73391693 278.96947968 -266.74223328 277.76548767 C-266.75601767 275.29199681 -266.76676486 272.81848738 -266.7746582 270.3449707 C-266.78607419 267.86802409 -266.80635664 265.39109999 -266.83618164 262.91430664 C-267.09914616 241.00598291 -265.34293807 219.5417898 -259.29199219 198.39648438 C-258.99647461 197.33848633 -258.70095703 196.28048828 -258.39648438 195.19042969 C-248.36264672 160.27433484 -231.67328128 127.57730103 -208.29199219 99.72851562 C-206.36214155 97.45313204 -206.36214155 97.45313204 -204.47949219 94.52148438 C-203.81949219 94.52148438 -203.15949219 94.52148438 -202.47949219 94.52148438 C-202.25261719 93.98523438 -202.02574219 93.44898438 -201.79199219 92.89648438 C-200.0237913 89.69688276 -197.94279016 87.23111214 -195.47949219 84.52148438 C-194.81949219 84.52148438 -194.15949219 84.52148438 -193.47949219 84.52148438 C-193.47949219 83.86148438 -193.47949219 83.20148438 -193.47949219 82.52148438 C-192.81949219 82.52148438 -192.15949219 82.52148438 -191.47949219 82.52148438 C-191.47949219 81.86148438 -191.47949219 81.20148438 -191.47949219 80.52148438 C-190.81949219 80.52148438 -190.15949219 80.52148438 -189.47949219 80.52148438 C-188.48949219 78.54148437 -188.48949219 78.54148437 -187.47949219 76.52148438 C-186.81949219 76.52148438 -186.15949219 76.52148438 -185.47949219 76.52148438 C-185.47949219 75.86148438 -185.47949219 75.20148438 -185.47949219 74.52148438 C-184.18652344 73.18164062 -184.18652344 73.18164062 -182.29199219 71.58398438 C-181.55722656 70.96265625 -180.82246094 70.34132813 -180.06542969 69.70117188 C-179.21207031 68.981875 -178.35871094 68.26257813 -177.47949219 67.52148438 C-176.04476562 66.25691406 -176.04476562 66.25691406 -174.58105469 64.96679688 C-166.67655617 58.03667215 -158.37055787 52.11624609 -149.47949219 46.52148438 C-148.77663086 46.07804687 -148.07376953 45.63460937 -147.34960938 45.17773438 C-142.10338815 41.88452016 -136.81073323 38.67506438 -131.47949219 35.52148438 C-130.73795898 35.08271973 -129.99642578 34.64395508 -129.23242188 34.19189453 C-118.72217593 28.02984276 -108.0260956 22.86913942 -96.69335938 18.39892578 C-94.67769001 17.60003786 -92.67588089 16.7740277 -90.67480469 15.93945312 C-82.50004189 12.66436317 -74.16888583 10.1841843 -65.66699219 7.89648438 C-64.66796875 7.61925537 -63.66894531 7.34202637 -62.63964844 7.05639648 C-42.07334144 1.72690584 -21.1902409 -0.1529132 0 0 Z M-135.47949219 49.52148438 C-136.59453125 50.18792969 -137.70957031 50.854375 -138.85839844 51.54101562 C-160.61765172 64.56573985 -180.76674189 82.01974285 -196.44824219 102.00195312 C-198.47315796 104.51362749 -200.62754022 106.81367378 -202.85449219 109.14648438 C-234.73079412 144.29357207 -251.51877421 196.29391729 -256.47949219 242.52148438 C-256.61097656 243.69453125 -256.74246094 244.86757813 -256.87792969 246.07617188 C-260.72641703 286.95334829 -253.07813933 330.11421911 -236.47949219 367.52148438 C-236.14224121 368.29476074 -235.80499023 369.06803711 -235.45751953 369.86474609 C-225.10075589 393.42429433 -211.60738028 415.18595178 -193.92871094 433.92382812 C-191.87833368 436.09847067 -189.91505851 438.30819974 -187.97949219 440.58398438 C-180.22914258 449.47843321 -171.70738837 457.19651594 -162.47949219 464.52148438 C-160.56116632 466.10280705 -158.6444823 467.68612371 -156.72949219 469.27148438 C-150.29977826 474.51151959 -144.0670649 478.83786263 -136.73730469 482.73242188 C-133.6420063 484.43223802 -130.62730651 486.22460265 -127.60717773 488.05249023 C-70.88981165 522.21307022 0.44955092 532.21786248 64.70703125 516.62646484 C83.59394646 511.83258738 102.47024424 505.93942777 119.61230469 496.55712891 C121.68704788 495.43109761 123.78061631 494.3471614 125.87988281 493.26757812 C134.02478954 489.06099538 141.91262683 484.6528997 149.52050781 479.52148438 C150.54402344 478.84601563 151.56753906 478.17054688 152.62207031 477.47460938 C171.38388116 464.84732856 189.18322926 448.91648418 203.27441406 431.25976562 C205.40982677 428.656419 207.64795909 426.21956764 209.95800781 423.77148438 C218.63040869 414.22277818 225.26262167 402.82240063 231.41503906 391.54296875 C232.19969783 390.10812454 232.99218331 388.67754807 233.79003906 387.25 C266.23498435 329.04545118 272.48810552 259.84405199 254.47363281 196.07617188 C250.15299273 181.29297576 244.85209499 167.11919711 237.58007812 153.53613281 C236.46535159 151.4166113 235.40825431 149.27443181 234.35644531 147.12304688 C224.82553678 127.90668553 212.54941045 110.78521362 197.52050781 95.52148438 C196.3195116 94.15825682 195.12966412 92.78500976 193.95800781 91.39648438 C185.96513954 82.18001651 177.14120922 74.00559338 167.52050781 66.52148438 C166.87388184 66.00908203 166.22725586 65.49667969 165.56103516 64.96875 C154.6531932 56.26674999 154.6531932 56.26674999 142.68457031 49.16210938 C140.03387768 47.78767616 137.48510041 46.3409516 134.91894531 44.81835938 C52.15767908 -4.16151912 -54.36076397 -1.68648758 -135.47949219 49.52148438 Z " fill="#CCCCCC" transform="translate(615.4794921875,344.478515625)"/>
<path d="M0 0 C2.15907997 1.13914321 4.34161956 2.22206224 6.53076172 3.30224609 C23.78891038 11.92251345 38.6379313 23.21538926 52.97216797 36.04052734 C53.98500495 36.93005964 54.9980217 37.8193873 56.01123047 38.70849609 C74.77041984 55.46307552 90.0850873 74.4886289 102.97216797 96.04052734 C103.38595703 96.72759766 103.79974609 97.41466797 104.22607422 98.12255859 C137.55762249 153.89514927 145.21848434 222.15867788 129.64794922 284.78271484 C120.82970808 318.60596262 104.418387 355.35003968 79.97216797 381.04052734 C79.31216797 381.04052734 78.65216797 381.04052734 77.97216797 381.04052734 C77.74916016 381.58064453 77.52615234 382.12076172 77.29638672 382.67724609 C75.54677171 385.79971536 73.21982693 388.26192023 70.78466797 390.85302734 C70.04156372 391.65196411 70.04156372 391.65196411 69.28344727 392.46704102 C58.7262818 403.77055113 47.2009673 413.59266566 34.97216797 423.04052734 C34.4065918 423.48380371 33.84101562 423.92708008 33.25830078 424.38378906 C12.52934462 440.40495807 -13.29914064 451.92108928 -38.02783203 460.04052734 C-38.76211426 460.29189453 -39.49639648 460.54326172 -40.25292969 460.80224609 C-100.02442645 481.16195612 -170.73569799 474.78739272 -227.18212891 447.51660156 C-232.98196689 444.61217679 -238.7154552 441.59133857 -244.40332031 438.47363281 C-246.19600366 437.49474433 -247.99693124 436.53084285 -249.8046875 435.58007812 C-256.03129439 432.27955319 -261.76091786 428.6345995 -267.40283203 424.41552734 C-268.21792236 423.81087646 -269.0330127 423.20622559 -269.87280273 422.58325195 C-276.03168419 417.94544137 -281.7519116 412.98260817 -287.30908203 407.64599609 C-289.559317 405.48952092 -291.84330462 403.43457448 -294.21533203 401.41552734 C-331.61949053 368.98280764 -356.3577282 321.14172125 -366.40283203 273.16552734 C-366.64146973 272.02688232 -366.88010742 270.8882373 -367.12597656 269.71508789 C-370.26676482 253.82378938 -371.41501328 238.08861021 -371.34033203 221.91552734 C-371.33817688 221.06746521 -371.33602173 220.21940308 -371.33380127 219.34564209 C-371.10632759 163.28061293 -351.28126525 111.15681682 -317.02783203 67.04052734 C-316.32400391 66.10466797 -315.62017578 65.16880859 -314.89501953 64.20458984 C-314.27884766 63.49044922 -313.66267578 62.77630859 -313.02783203 62.04052734 C-312.36783203 62.04052734 -311.70783203 62.04052734 -311.02783203 62.04052734 C-310.6194812 61.15107422 -310.6194812 61.15107422 -310.20288086 60.24365234 C-309.05498573 58.09143842 -307.88045277 56.57057403 -306.22705078 54.79052734 C-305.66880615 54.18813232 -305.11056152 53.5857373 -304.53540039 52.96508789 C-303.93477783 52.32998291 -303.33415527 51.69487793 -302.71533203 51.04052734 C-302.09086182 50.37770752 -301.4663916 49.7148877 -300.82299805 49.03198242 C-290.99410322 38.70228377 -280.56000472 29.42197459 -269.02783203 21.04052734 C-268.42632324 20.59854004 -267.82481445 20.15655273 -267.20507812 19.70117188 C-256.69236617 12.02708284 -245.68944182 5.79726595 -234.02783203 0.04052734 C-233.0479834 -0.44625488 -233.0479834 -0.44625488 -232.04833984 -0.94287109 C-159.45494058 -36.72404685 -72.12113301 -38.70972185 0 0 Z M-308.02783203 65.04052734 C-311.68517467 69.14860948 -314.91645042 73.50646938 -318.02783203 78.04052734 C-318.81156131 79.14478266 -319.59542013 80.24894604 -320.37939453 81.35302734 C-328.09173635 92.40717862 -334.62444144 104.19470068 -341.02783203 116.04052734 C-341.57117188 117.03656982 -341.57117188 117.03656982 -342.12548828 118.05273438 C-352.9896659 138.32078959 -359.37288328 162.48835792 -363.02783203 185.04052734 C-363.15625488 185.80139648 -363.28467773 186.56226563 -363.41699219 187.34619141 C-373.13313165 247.76291315 -356.28866021 312.62370368 -321.02783203 362.04052734 C-320.30611816 363.05421387 -320.30611816 363.05421387 -319.56982422 364.08837891 C-314.07888622 371.74038061 -308.57501155 378.99649313 -301.67236328 385.43896484 C-300.02783203 387.04052734 -300.02783203 387.04052734 -299.02783203 389.04052734 C-298.36783203 389.04052734 -297.70783203 389.04052734 -297.02783203 389.04052734 C-296.62866577 389.93106812 -296.62866577 389.93106812 -296.22143555 390.83959961 C-294.99799481 393.09554526 -293.7816888 394.49417578 -291.93017578 396.25537109 C-291.30248291 396.8525293 -290.67479004 397.4496875 -290.02807617 398.06494141 C-289.34737061 398.69625977 -288.66666504 399.32757812 -287.96533203 399.97802734 C-287.2543335 400.63899414 -286.54333496 401.29996094 -285.81079102 401.98095703 C-278.27848764 408.87697182 -270.33989843 415.1154763 -262.02783203 421.04052734 C-261.04556641 421.74338867 -261.04556641 421.74338867 -260.04345703 422.46044922 C-208.83094337 458.56527135 -140.63061184 473.8547154 -78.70751953 464.07568359 C-51.40941526 459.26483463 -26.69490269 450.96204083 -1.9543457 438.50756836 C0.03808843 437.50877494 2.0383324 436.52544465 4.04516602 435.5559082 C10.51170359 432.41067714 16.51499948 428.96866009 22.40966797 424.85302734 C23.22169678 424.29131836 24.03372559 423.72960937 24.87036133 423.15087891 C31.95104293 418.18536977 38.53362887 412.80455283 44.97216797 407.04052734 C46.37789062 405.79916016 46.37789062 405.79916016 47.81201172 404.53271484 C51.9926578 400.81249234 56.02069086 397.00345801 59.97216797 393.04052734 C61.1712639 391.88540054 62.37190895 390.73188061 63.57373047 389.57958984 C78.02267005 375.60212311 88.54994736 360.1569638 98.97216797 343.04052734 C99.38208984 342.38004395 99.79201172 341.71956055 100.21435547 341.0390625 C121.74754303 306.16505362 131.22738005 263.58675902 131.15966797 222.97802734 C131.15873138 222.24898193 131.1577948 221.51993652 131.15682983 220.76879883 C130.98568717 159.15744017 107.43065243 98.60021399 63.72216797 54.72802734 C62.47323575 53.49777574 61.22318448 52.26865941 59.97216797 51.04052734 C57.57706693 48.66437489 55.20046061 46.28426836 52.89404297 43.82177734 C15.39967694 4.43920583 -46.20111237 -20.36949372 -99.9621582 -22.16455078 C-105.3384183 -22.28694544 -110.71295818 -22.29394798 -116.09033203 -22.27197266 C-117.03970642 -22.2698175 -117.98908081 -22.26766235 -118.96722412 -22.26544189 C-193.63648855 -21.99356298 -257.46107915 11.51671639 -308.02783203 65.04052734 Z " fill="#CCCCCC" transform="translate(736.02783203125,388.95947265625)"/>
<path d="M0 0 C7.52882467 5.87673148 13.72152164 11.6079343 18.4921875 19.9453125 C18.86988281 20.55632813 19.24757813 21.16734375 19.63671875 21.796875 C26.84310075 34.48226654 26.77851675 49.66815388 23.5234375 63.45703125 C18.91525462 79.04455895 8.01714487 90.91465393 -6.1328125 98.6328125 C-20.34837136 105.25796493 -36.15159734 107.53586343 -51.37109375 103.11328125 C-69.37319548 96.41013254 -82.75362339 85.97431184 -90.9453125 68.1953125 C-95.84903693 54.29766032 -95.61297373 38.85790229 -89.70703125 25.35546875 C-81.38344268 8.62695362 -69.48283927 -1.81554924 -51.75 -8.01953125 C-34.32784984 -13.17022142 -14.93039862 -10.48304584 0 0 Z M-57.5078125 20.9453125 C-58.5596875 21.6465625 -59.6115625 22.3478125 -60.6953125 23.0703125 C-66.04324816 27.54153739 -68.57941805 36.22992601 -69.5078125 42.9453125 C-69.58239188 55.16141547 -67.45214925 64.88893436 -58.921875 73.8984375 C-51.08263323 80.54530269 -42.07392753 83.31334108 -31.9296875 83.16015625 C-23.50598886 82.41289266 -14.55982313 78.98931521 -8.53125 72.97265625 C-1.25757443 64.19781785 1.20457281 56.01715039 0.8828125 44.640625 C-0.02696258 36.0341527 -3.17981892 27.52900145 -9.9609375 21.9140625 C-25.53889552 10.16674989 -41.92242411 7.88455506 -57.5078125 20.9453125 Z " fill="#CCCCCC" transform="translate(519.5078125,534.0546875)"/>
<path d="M0 0 C7.30705809 5.37367307 7.30705809 5.37367307 10 9 C9.95839279 12.02808004 9.41599291 13.47218104 7.546875 15.84375 C6.95390625 16.3903125 6.3609375 16.936875 5.75 17.5 C3.49708967 19.60087344 1.36186025 21.70165205 -0.6875 24 C-1.450625 24.66 -2.21375 25.32 -3 26 C-6.6242725 25.67750118 -8.9590438 23.75498148 -11.8125 21.625 C-20.47312821 15.48199627 -29.0723043 12.75294674 -39.78125 14.4375 C-45.48793465 15.98746373 -50.19995115 18.59906853 -55 22 C-55.886875 22.556875 -56.77375 23.11375 -57.6875 23.6875 C-64.00512441 30.00512441 -66.88098388 39.42269779 -67.375 48.1875 C-67.11485779 57.58513742 -63.82968672 67.39596373 -57 74 C-48.55628453 80.66844667 -39.88568351 83.96802219 -29 83 C-21.11189824 81.81242667 -15.42248382 79.47376222 -9.15625 74.5234375 C-6.94344571 72.96004316 -5.66825166 72.31856429 -3 72 C-1.35253906 72.98803711 -1.35253906 72.98803711 0.234375 74.52734375 C0.80800781 75.07197266 1.38164063 75.61660156 1.97265625 76.17773438 C2.55917969 76.75845703 3.14570312 77.33917969 3.75 77.9375 C4.35199219 78.51435547 4.95398438 79.09121094 5.57421875 79.68554688 C7.06022857 81.11258805 8.53155166 82.55489405 10 84 C8.74868767 89.61671084 5.48191629 92.50284278 1 96 C-14.03229582 105.30648374 -30.04657926 108.83959795 -47.5 104.75 C-55.39164269 102.44288042 -63.52259416 99.18898451 -70 94 C-70 93.34 -70 92.68 -70 92 C-69.175 91.195625 -68.35 90.39125 -67.5 89.5625 C-64.65083807 87.23877584 -64.65083807 87.23877584 -65 84 C-66.42903879 82.4687892 -66.42903879 82.4687892 -68.375 81 C-73.80007156 76.47910703 -78.33546645 71.28583413 -83 66 C-85.475 66.99 -85.475 66.99 -88 68 C-90.74322308 65.25677692 -90.74856743 62.44711308 -91.1875 58.75 C-91.27281982 58.03851807 -91.35813965 57.32703613 -91.44604492 56.59399414 C-92.44824969 47.15944585 -92.65643614 37.5030573 -88 29 C-86.35 29.66 -84.7 30.32 -83 31 C-82.19175781 30.11957031 -81.38351562 29.23914063 -80.55078125 28.33203125 C-79.47141058 27.15880226 -78.39198033 25.98562809 -77.3125 24.8125 C-76.78205078 24.23435547 -76.25160156 23.65621094 -75.70507812 23.06054688 C-73.24071629 20.38452206 -70.75989277 17.76188537 -68.17578125 15.19921875 C-65.98380189 13.17751242 -65.98380189 13.17751242 -64.875 11 C-65.08377833 7.6595467 -67.64857019 6.17937397 -70 4 C-70 3.34 -70 2.68 -70 2 C-47.11540439 -10.38133136 -23.20420286 -14.38225693 0 0 Z " fill="#CCCCCC" transform="translate(707,533)"/>
<path d="M0 0 C5.80032982 4.38627426 5.80032982 4.38627426 8 7 C8 7.99 8 8.98 8 10 C7.34 10 6.68 10 6 10 C5.74089844 10.57492187 5.48179687 11.14984375 5.21484375 11.7421875 C3.90115939 14.18369734 2.39702947 16.04981183 0.5625 18.125 C-0.03433594 18.80820312 -0.63117188 19.49140625 -1.24609375 20.1953125 C-3 22 -3 22 -6 24 C-6.99 24 -7.98 24 -9 24 C-9.9590625 22.948125 -9.9590625 22.948125 -10.9375 21.875 C-16.07015746 16.36447819 -24.74635219 12.47928015 -32.2265625 11.796875 C-42.49346453 11.59621893 -51.10538385 14.30016293 -59 21 C-65.99158082 28.37321732 -68.9854116 36.90482997 -69 47 C-68.27876405 56.91371594 -65.66282155 65.88105768 -58.3125 72.875 C-50.15899586 79.43493502 -40.26703335 81.79887579 -30 81 C-23.31510853 79.77892075 -17.9170951 77.04465533 -12.2265625 73.40234375 C-10.19759821 72.12445221 -8.1622402 71.03175389 -6 70 C-1.14256071 74.16704183 3.53019508 78.41844996 8 83 C3.71746832 92.63569628 -6.79200694 97.10547179 -16 101 C-28.80900789 105.65333663 -42.14367587 105.19464813 -55 101 C-55.85078125 100.73316406 -56.7015625 100.46632813 -57.578125 100.19140625 C-68.85538471 96.20180965 -78.61639482 88.00435369 -85.85546875 78.5859375 C-87 76 -87 76 -86.26953125 73.45703125 C-85.54830078 72.14798828 -85.54830078 72.14798828 -84.8125 70.8125 C-77.86993226 56.87167547 -78.43626961 40.71376977 -83 26 C-84.09670647 23.78461963 -84.09670647 23.78461963 -85.3125 21.9375 C-87 19 -87 19 -86.36328125 16.625 C-79.99956681 4.37165873 -67.10205134 -4.05239477 -54.296875 -8.19921875 C-35.18637766 -13.67874676 -16.38571865 -11.61059058 0 0 Z " fill="#CCCCCC" transform="translate(629,535)"/>
<path d="M0 0 C7.59 0 15.18 0 23 0 C24.25930706 3.77792119 24.13135546 7.30050447 24.11352539 11.23510742 C24.11367142 12.07435257 24.11381744 12.91359772 24.1139679 13.77827454 C24.11327087 16.55403217 24.10548829 19.32972282 24.09765625 22.10546875 C24.09579132 24.02932193 24.09436777 25.95317559 24.09336853 27.87702942 C24.08954924 32.94214182 24.07972394 38.00722558 24.06866455 43.07232666 C24.05843781 48.24027112 24.0538682 53.40822021 24.04882812 58.57617188 C24.03810117 68.71746051 24.02103177 78.85872787 24 89 C24.99265114 88.99666908 24.99265114 88.99666908 26.00535583 88.99327087 C32.8666022 88.97122035 39.72783857 88.95609438 46.58911133 88.94506836 C49.15291757 88.9400263 51.71672091 88.93319286 54.28051758 88.92456055 C57.95655021 88.91248936 61.63254498 88.90677058 65.30859375 88.90234375 C66.46274277 88.89718246 67.61689178 88.89202118 68.80601501 88.88670349 C70.3975515 88.88659019 70.3975515 88.88659019 72.02124023 88.88647461 C72.96055893 88.884254 73.89987762 88.88203339 74.86766052 88.87974548 C77 89 77 89 78 90 C78 96.93 78 103.86 78 111 C52.26 111 26.52 111 0 111 C-0.61431971 96.25632693 -1.15306153 81.6312706 -1.1328125 66.89453125 C-1.13348952 65.10235074 -1.13446281 63.31017032 -1.13571167 61.51799011 C-1.13716275 57.82196144 -1.13511463 54.12595739 -1.13037109 50.42993164 C-1.12459477 45.7004625 -1.12801817 40.97104915 -1.13394356 36.24158192 C-1.13755232 32.56731238 -1.13641049 28.89305617 -1.13381577 25.21878624 C-1.13315147 23.47290731 -1.13395743 21.72702716 -1.13629532 19.98114967 C-1.13883569 17.55877049 -1.1349653 15.13648362 -1.12939453 12.71411133 C-1.13141876 12.00303223 -1.13344299 11.29195312 -1.13552856 10.55932617 C-1.11959934 6.81883021 -0.74351343 3.71756716 0 0 Z " fill="#CCCCCC" transform="translate(719,526)"/>
<path d="M0 0 C0 0.99 0 1.98 0 3 C-3.63 3 -7.26 3 -11 3 C-11.061875 4.27875 -11.12375 5.5575 -11.1875 6.875 C-11.22230469 7.59429688 -11.25710938 8.31359375 -11.29296875 9.0546875 C-11.19628906 9.69664062 -11.09960938 10.33859375 -11 11 C-7.36050017 13.42633322 -5.52801625 13.59574263 -1.27734375 13.0859375 C2.89312199 11.09727631 3.94076789 6.80934825 5.515625 2.6875 C7 0 7 0 9.671875 -0.875 C10.44015625 -0.91625 11.2084375 -0.9575 12 -1 C13.33819498 1.6226232 14.6707151 4.24786599 16 6.875 C16.57234375 7.99455078 16.57234375 7.99455078 17.15625 9.13671875 C17.69765625 10.20986328 17.69765625 10.20986328 18.25 11.3046875 C18.58515625 11.96452637 18.9203125 12.62436523 19.265625 13.30419922 C20 15 20 15 20 17 C18.35 17 16.7 17 15 17 C14.67 15.68 14.34 14.36 14 13 C11.03 13 8.06 13 5 13 C4.67 14.32 4.34 15.64 4 17 C3.195625 16.814375 2.39125 16.62875 1.5625 16.4375 C0.2940625 16.2209375 0.2940625 16.2209375 -1 16 C-1.33 16.33 -1.66 16.66 -2 17 C-6.45602067 17.56160591 -9.98283621 17.5297728 -14 15.4375 C-16.62643937 12.23652701 -16.92787 10.11140988 -17 6 C-16.28201105 3.06277249 -15.72821954 1.58817732 -13.375 -0.3125 C-8.89002927 -1.610781 -4.44177885 -1.48059295 0 0 Z M9 4 C8.67 5.65 8.34 7.3 8 9 C9.32 8.67 10.64 8.34 12 8 C11.34 6.68 10.68 5.36 10 4 C9.67 4 9.34 4 9 4 Z " fill="#CCCCCC" transform="translate(526,663)"/>
<path d="M0 0 C1.32 0 2.64 0 4 0 C5.703125 1.96875 5.703125 1.96875 7.25 4.5 C8.03117187 5.75296875 8.03117187 5.75296875 8.828125 7.03125 C9.21484375 7.6809375 9.6015625 8.330625 10 9 C10.38671875 8.3503125 10.7734375 7.700625 11.171875 7.03125 C11.95304687 5.77828125 11.95304687 5.77828125 12.75 4.5 C13.26046875 3.6646875 13.7709375 2.829375 14.296875 1.96875 C14.85890625 1.3190625 15.4209375 0.669375 16 0 C17.32 0 18.64 0 20 0 C20 5.94 20 11.88 20 18 C18.68 18 17.36 18 16 18 C15.67 15.36 15.34 12.72 15 10 C14.01 11.98 13.02 13.96 12 16 C10.68 16 9.36 16 8 16 C6.25 13.5 6.25 13.5 5 11 C4.67 13.31 4.34 15.62 4 18 C2.68 18 1.36 18 0 18 C0 12.06 0 6.12 0 0 Z " fill="#CCCCCC" transform="translate(426,662)"/>
<path d="M0 0 C5.40447513 1.08089503 6.50466202 2.01919841 10 6 C10.33 6.66 10.66 7.32 11 8 C11.33 5.36 11.66 2.72 12 0 C13.65 0 15.3 0 17 0 C17 5.94 17 11.88 17 18 C15.68 18 14.36 18 13 18 C11.078125 16.03125 11.078125 16.03125 9.25 13.5 C8.32960938 12.24703125 8.32960938 12.24703125 7.390625 10.96875 C6.70226562 9.99421875 6.70226562 9.99421875 6 9 C5.67 11.97 5.34 14.94 5 18 C3.35 18 1.7 18 0 18 C0 12.06 0 6.12 0 0 Z " fill="#CCCCCC" transform="translate(626,662)"/>
<path d="M0 0 C5.625 1.125 5.625 1.125 8.3125 4.5625 C8.82425781 5.20316406 9.33601562 5.84382812 9.86328125 6.50390625 C10.23839844 6.99761719 10.61351562 7.49132812 11 8 C11.66 5.36 12.32 2.72 13 0 C14.32 0 15.64 0 17 0 C17 5.94 17 11.88 17 18 C12 18 12 18 9.98046875 16.03125 C9.38878906 15.1959375 8.79710937 14.360625 8.1875 13.5 C7.28064453 12.24703125 7.28064453 12.24703125 6.35546875 10.96875 C5.90816406 10.3190625 5.46085938 9.669375 5 9 C4.67 11.97 4.34 14.94 4 18 C2.68 18 1.36 18 0 18 C0 12.06 0 6.12 0 0 Z " fill="#CCCCCC" transform="translate(727,662)"/>
<path d="M0 0 C3.29290345 1.36011229 4.59282934 2.29670522 6.375 5.375 C7.11554292 8.48528027 7.1249404 10.00015893 6 13 C3.7301303 15.77428519 1.94298808 17.60295239 -1.375 19 C-5.20702293 19 -7.67008202 17.84995443 -11 16 C-13.69071349 12.97294732 -14 11.50449986 -14 7.4375 C-13 4 -13 4 -10.9375 1.5625 C-7.12062301 -0.46775372 -4.23520446 -0.70300965 0 0 Z M-7.1875 4.125 C-9.27346799 5.93856478 -9.27346799 5.93856478 -9.5625 9 C-9.28440714 12.14227104 -9.28440714 12.14227104 -6.8125 14 C-4.0323473 15.29005448 -4.0323473 15.29005448 -1.25 14.25 C0.90270293 13.18887078 0.90270293 13.18887078 2 12 C2.41702122 9.0842309 2.41702122 9.0842309 2 6 C0.2890789 4.02901574 0.2890789 4.02901574 -2 3 C-4.96532836 2.77132599 -4.96532836 2.77132599 -7.1875 4.125 Z " fill="#CCCCCC" transform="translate(417,662)"/>
<path d="M0 0 C11.90981786 -0.43047534 11.90981786 -0.43047534 16 3 C18 5 18 5 18.5 8.8125 C18.3725043 12.31225702 17.98549108 13.01934523 15.75 16 C11.11295547 19.34897661 5.42413767 18.30134098 0 18 C0 12.06 0 6.12 0 0 Z M4 3 C4 6.96 4 10.92 4 15 C8.91881874 14.71756411 8.91881874 14.71756411 13 12.25 C14.28953237 9.34855218 14.08929596 7.95666047 13 5 C9.76887492 2.4452998 9.76887492 2.4452998 4 3 Z " fill="#CCCCCC" transform="translate(817,662)"/>
<path d="M0 0 C2.125 1.625 2.125 1.625 3.125 3.625 C3.82007654 10.6916115 3.82007654 10.6916115 0.9375 14.5625 C-1.98777654 16.70770279 -3.27417454 17.625 -6.875 17.625 C-13.33485401 15.43521898 -13.33485401 15.43521898 -15.875 11.625 C-16.42835968 4.65266798 -16.42835968 4.65266798 -14.5625 1.1875 C-10.49865576 -2.57531874 -4.7502514 -2.27185936 0 0 Z M-10.875 2.625 C-11.34023063 4.52033342 -11.34023063 4.52033342 -11.5 6.6875 C-11.62375 7.986875 -11.7475 9.28625 -11.875 10.625 C-10.18004044 12.29346734 -10.18004044 12.29346734 -7.875 13.625 C-4.50463689 13.38425978 -3.28701979 13.03701979 -0.875 10.625 C-0.45833333 7.125 -0.45833333 7.125 -0.875 3.625 C-4.41942593 1.26204938 -6.97715986 0.67607993 -10.875 2.625 Z " fill="#CCCCCC" transform="translate(620.875,663.375)"/>
<path d="M0 0 C10.33326576 -0.36904521 10.33326576 -0.36904521 13.3359375 1.29296875 C15 3 15 3 15.375 6.5 C15 10 15 10 13 13 C13.66 13.66 14.32 14.32 15 15 C15 15.99 15 16.98 15 18 C12.625 17.6875 12.625 17.6875 10 17 C9.34 16.01 8.68 15.02 8 14 C5.94074861 13.27617533 5.94074861 13.27617533 4 13 C4 14.65 4 16.3 4 18 C2.68 18 1.36 18 0 18 C0 12.06 0 6.12 0 0 Z M4 3 C4 4.98 4 6.96 4 9 C5.98 9 7.96 9 10 9 C10.33 7.35 10.66 5.7 11 4 C8.69 3.67 6.38 3.34 4 3 Z " fill="#CCCCCC" transform="translate(547,662)"/>
<path d="M0 0 C2.26171875 0.0703125 2.26171875 0.0703125 5 1 C6.53981687 3.32908471 7.67721668 5.36384353 8.8125 7.875 C9.12380859 8.51308594 9.43511719 9.15117188 9.75585938 9.80859375 C11.13315415 12.70848033 12 14.75479911 12 18 C9.5625 17.625 9.5625 17.625 7 17 C6.67 16.34 6.34 15.68 6 15 C4.10466658 14.53476937 4.10466658 14.53476937 1.9375 14.375 C0.638125 14.25125 -0.66125 14.1275 -2 14 C-2.33 15.32 -2.66 16.64 -3 18 C-4.65 18 -6.3 18 -8 18 C-6.10463724 11.48180123 -3.4821006 5.82185199 0 0 Z M1 6 C0.67 7.32 0.34 8.64 0 10 C1.32 10 2.64 10 4 10 C3.67 8.68 3.34 7.36 3 6 C2.34 6 1.68 6 1 6 Z " fill="#CCCCCC" transform="translate(714,662)"/>
<path d="M0 0 C1.65 0 3.3 0 5 0 C6.33819498 2.6226232 7.6707151 5.24786599 9 7.875 C9.3815625 8.62136719 9.763125 9.36773438 10.15625 10.13671875 C10.5171875 10.85214844 10.878125 11.56757812 11.25 12.3046875 C11.58515625 12.96452637 11.9203125 13.62436523 12.265625 14.30419922 C13 16 13 16 13 18 C11.35 18 9.7 18 8 18 C7.67 16.68 7.34 15.36 7 14 C5.72125 14.103125 4.4425 14.20625 3.125 14.3125 C2.40570313 14.37050781 1.68640625 14.42851563 0.9453125 14.48828125 C-1.39519216 14.87393036 -1.39519216 14.87393036 -3 18 C-4.32 18 -5.64 18 -7 18 C-6.35534798 13.66695924 -4.81074878 10.13327935 -2.9375 6.1875 C-2.11572266 4.44533203 -2.11572266 4.44533203 -1.27734375 2.66796875 C-0.85582031 1.78753906 -0.43429687 0.90710938 0 0 Z M2 5 C1.67 6.65 1.34 8.3 1 10 C2.32 9.67 3.64 9.34 5 9 C4.01 7.68 3.02 6.36 2 5 Z " fill="#CCCCCC" transform="translate(490,662)"/>
<path d="M0 0 C0.680625 -0.01417969 1.36125 -0.02835938 2.0625 -0.04296875 C4 0.1875 4 0.1875 7 2.1875 C7 2.8475 7 3.5075 7 4.1875 C6.38511719 4.15269531 5.77023437 4.11789062 5.13671875 4.08203125 C3.92435547 4.04142578 3.92435547 4.04142578 2.6875 4 C1.88699219 3.96519531 1.08648437 3.93039062 0.26171875 3.89453125 C-2.0620179 4.01247797 -2.0620179 4.01247797 -3.8125 5.5 C-5.34075223 7.28177577 -5.34075223 7.28177577 -4.6875 10.375 C-4.460625 11.303125 -4.23375 12.23125 -4 13.1875 C-1.03 13.6825 -1.03 13.6825 2 14.1875 C2.33 12.2075 2.66 10.2275 3 8.1875 C4.32 8.1875 5.64 8.1875 7 8.1875 C7.29296875 14.2421875 7.29296875 14.2421875 7 16.1875 C2.96514506 18.87740329 -0.26228652 18.96743882 -5 18.1875 C-8.0625 16.25 -8.0625 16.25 -10 13.1875 C-10.55715593 10.09880061 -10.68996881 7.25786121 -10 4.1875 C-7.26907029 0.71032787 -4.28367529 0.04056511 0 0 Z " fill="#CCCCCC" transform="translate(475,661.8125)"/>
<path d="M0 0 C4.62 0 9.24 0 14 0 C14 0.99 14 1.98 14 3 C10.7 3 7.4 3 4 3 C4 4.32 4 5.64 4 7 C6.64 7 9.28 7 12 7 C12.33 7.99 12.66 8.98 13 10 C10.04335481 11.4783226 7.25770263 11.06032783 4 11 C4 11.99 4 12.98 4 14 C7.3 14.33 10.6 14.66 14 15 C14 15.99 14 16.98 14 18 C9.38 18 4.76 18 0 18 C0 12.06 0 6.12 0 0 Z " fill="#CCCCCC" transform="translate(565,662)"/>
<path d="M0 0 C1.32 0 2.64 0 4 0 C4.33 4.62 4.66 9.24 5 14 C6.98 13.67 8.96 13.34 11 13 C11.33 8.71 11.66 4.42 12 0 C13.32 0 14.64 0 16 0 C16.08119503 2.24940295 16.13927819 4.49964871 16.1875 6.75 C16.23970703 8.62945313 16.23970703 8.62945313 16.29296875 10.546875 C15.98511109 14.17549059 15.68910046 15.58517586 13 18 C8.55778634 19.20621907 4.86145278 18.4651845 0.875 16.3125 C-2.11264642 11.03432465 -0.86342339 5.8387938 0 0 Z " fill="#CCCCCC" transform="translate(662,662)"/>
<path d="M0 0 C4.29 0 8.58 0 13 0 C13 0.99 13 1.98 13 3 C10.03 3 7.06 3 4 3 C4 4.32 4 5.64 4 7 C6.64 7 9.28 7 12 7 C12 7.99 12 8.98 12 10 C9.69 10.33 7.38 10.66 5 11 C4.67 12.32 4.34 13.64 4 15 C5.27875 14.814375 6.5575 14.62875 7.875 14.4375 C11.75 13.875 11.75 13.875 14 15 C14 15.99 14 16.98 14 18 C9.38 18 4.76 18 0 18 C-0.19430855 15.3753399 -0.38073238 12.75053235 -0.5625 10.125 C-0.61857422 9.37863281 -0.67464844 8.63226562 -0.73242188 7.86328125 C-1.11328125 2.2265625 -1.11328125 2.2265625 0 0 Z " fill="#CCCCCC" transform="translate(450,662)"/>
<path d="M0 0 C0.66 0.33 1.32 0.66 2 1 C2 1.99 2 2.98 2 4 C-0.64 4 -3.28 4 -6 4 C-6.33 4.66 -6.66 5.32 -7 6 C-4.98177083 6.45572917 -2.96354167 6.91145833 -0.9453125 7.3671875 C1 8 1 8 3 10 C3.35729435 12.78689593 3.4837333 14.33879312 1.796875 16.64453125 C-0.59558641 18.44927932 -2.09673098 18.33735697 -5.0625 18.25 C-5.94035156 18.23453125 -6.81820312 18.2190625 -7.72265625 18.203125 C-10 18 -10 18 -12 17 C-12 16.01 -12 15.02 -12 14 C-10.0625 13.4375 -10.0625 13.4375 -8 13 C-7.67 13.33 -7.34 13.66 -7 14 C-5.33382885 14.04063832 -3.66611905 14.042721 -2 14 C-2 13.34 -2 12.68 -2 12 C-4.97 11.01 -7.94 10.02 -11 9 C-11.33 7.02 -11.66 5.04 -12 3 C-8.22988958 -0.77011042 -5.04968446 -0.32578609 0 0 Z " fill="#CCCCCC" transform="translate(657,662)"/>
<path d="M0 0 C0.680625 -0.01417969 1.36125 -0.02835938 2.0625 -0.04296875 C4 0.1875 4 0.1875 7 2.1875 C7 3.1775 7 4.1675 7 5.1875 C3.37 4.8575 -0.26 4.5275 -4 4.1875 C-4 7.1575 -4 10.1275 -4 13.1875 C-0.30458414 14.13774979 2.30458414 14.13774979 6 13.1875 C6 14.5075 6 15.8275 6 17.1875 C-0.16301703 19.36268248 -0.16301703 19.36268248 -3.6875 18.625 C-6.64862431 16.78430111 -8.19941719 15.18847135 -10 12.1875 C-10.46349055 8.41336263 -10.53877007 6.16241727 -8.6875 2.8125 C-6.06052734 0.28282262 -3.49505209 0.03309708 0 0 Z " fill="#CCCCCC" transform="translate(597,661.8125)"/>
<path d="M0 0 C0.99 0.66 1.98 1.32 3 2 C3 2.99 3 3.98 3 5 C2.06027344 4.87431641 2.06027344 4.87431641 1.1015625 4.74609375 C-0.12433594 4.59333984 -0.12433594 4.59333984 -1.375 4.4375 C-2.59316406 4.28087891 -2.59316406 4.28087891 -3.8359375 4.12109375 C-6.04899186 3.81762672 -6.04899186 3.81762672 -8 5 C-9.01453953 7.32024404 -9.01453953 7.32024404 -9 10 C-7.69138543 12.55985074 -7.69138543 12.55985074 -5 14 C-2.17777373 14.03225401 0.20380079 13.55923984 3 13 C3 14.32 3 15.64 3 17 C-1.07380254 19.03690127 -3.61568793 19.27875769 -8 18 C-12.57627119 14.84745763 -12.57627119 14.84745763 -14 12 C-14.25303321 8.12015747 -14.30454139 5.22635795 -12 2 C-8.37270487 -0.79022703 -4.36400719 -0.27707982 0 0 Z " fill="#CCCCCC" transform="translate(760,662)"/>
<path d="M0 0 C3.67420866 0.30618405 4.78135513 0.75771784 7.3125 3.5625 C8.1478125 4.7690625 8.1478125 4.7690625 9 6 C9.86625 4.515 9.86625 4.515 10.75 3 C11.4925 2.01 12.235 1.02 13 0 C14.32 0 15.64 0 17 0 C16.52445454 2.97215912 15.59345472 4.67334061 14 7.3125 C11.85836278 10.89741447 11.33786903 13.86110442 11 18 C9.35 18 7.7 18 6 18 C6.12375 17.21625 6.2475 16.4325 6.375 15.625 C5.88796389 10.91698425 3.87150961 8.08147302 1.3125 4.171875 C0 2 0 2 0 0 Z " fill="#CCCCCC" transform="translate(763,662)"/>
<path d="M0 0 C5.28 0 10.56 0 16 0 C16 0.99 16 1.98 16 3 C14.02 3 12.04 3 10 3 C10 7.95 10 12.9 10 18 C8.68 18 7.36 18 6 18 C5.67 13.05 5.34 8.1 5 3 C3.02 3 1.04 3 -1 3 C-0.67 2.01 -0.34 1.02 0 0 Z " fill="#CCCCCC" transform="translate(693,662)"/>
<path d="M0 0 C5.28 0 10.56 0 16 0 C16 0.99 16 1.98 16 3 C14.02 3 12.04 3 10 3 C10 7.95 10 12.9 10 18 C8.68 18 7.36 18 6 18 C6 13.05 6 8.1 6 3 C4.02 3 2.04 3 0 3 C0 2.01 0 1.02 0 0 Z " fill="#CCCCCC" transform="translate(800,662)"/>
<path d="M0 0 C1.32 0 2.64 0 4 0 C4 4.62 4 9.24 4 14 C6.97 14 9.94 14 13 14 C13 15.32 13 16.64 13 18 C8.71 18 4.42 18 0 18 C0 12.06 0 6.12 0 0 Z " fill="#CCCCCC" transform="translate(789,662)"/>
<path d="M0 0 C1.32 0 2.64 0 4 0 C4.33 4.62 4.66 9.24 5 14 C7.64 14 10.28 14 13 14 C13 15.32 13 16.64 13 18 C8.71 18 4.42 18 0 18 C0 12.06 0 6.12 0 0 Z " fill="#CCCCCC" transform="translate(682,662)"/>
</svg>